<?xml version="1.0" encoding="UTF-8"?>
<svg viewBox="0 0 744.09448819 600.3622047" xmlns="http://www.w3.org/2000/svg">
 <path d="m18.571 564.11v-81.776h8.0173c9.9916 0 9.9691-0.77883-0.34259-11.861-8.3211-8.9426-8.3514-9.1709-6.5453-49.267 2.0445-45.389 3.6649-52.286 11.786-50.162 12.771 3.3398 14.399-1.9683 13.239-43.174-0.60771-21.586-3.072-48.65-5.4762-60.141-2.5995-12.424-3.1714-21.634-1.4109-22.722 1.7412-1.0761 1.0405-9.0441-1.7012-19.347-9.4327-35.445-9.246-35.6 48.772-40.403 26.129-2.163 69.516-4.9715 96.414-6.241l48.905-2.3083v19.726c0 10.849 1.277 19.726 2.8378 19.726s27.898-12.084 58.526-26.853 66.375-31.516 79.437-37.214 28.895-13.252 35.184-16.784 19.635-7.582 29.656-8.9984c12.776-1.8058 27.177-7.5879 48.196-19.351 16.487-9.2264 35.387-19.491 42.002-22.811 8.0189-4.0246 12.026-8.2246 12.026-12.605 0-3.6133 3.7662-12.996 8.3694-20.851 5.5536-9.4765 7.9082-17.423 6.9987-23.62-1.136-7.7401-0.05147-9.6701 6.3345-11.273 12.138-3.0464 20.873 1.007 18.849 8.7465-2.0087 7.6813 4.0203 20.664 13.638 29.368 3.7082 3.3558 6.7422 8.8094 6.7422 12.119s2.1647 6.8481 4.8104 7.8634 4.8104 5.692 4.8104 10.393c0 4.826 4.3274 13.797 9.9398 20.606 6.4192 7.7877 10.5 16.849 11.52 25.584 0.8693 7.439 3.4924 17.855 5.8291 23.146s5.2375 14.964 6.4462 21.495l2.1976 11.875 20.516-1.9159c25.808-2.41 27.777 3.3405 3.0395 8.8766-9.6123 2.1511-18.075 5.5016-18.807 7.4456s-0.3195 15.079 0.91542 29.19 1.8713 27.82 1.4141 30.466-0.94158 8.0121-1.0765 11.925c-0.17096 4.9577-1.7038 6.5552-5.0557 5.269-3.7947-1.4562-4.8104 0.93503-4.8104 11.325 0 15.505 6.2105 17.995 6.8531 2.7483 0.24161-5.7324 2.2931 6.1733 4.5588 26.457s5.1265 40.142 6.3573 44.128c1.8817 6.0952 0.64572 7.804-7.7657 10.736-9.4822 3.3055-10.003 4.3622-10.003 20.277 0 9.2344 0.73384 17.524 1.6308 18.421s2.3365 41.83 3.199 90.962 2.674 90.437 4.0255 91.788 18.312 2.8703 37.689 3.3751l35.232 0.91792 0.94223 23.25 0.94222 23.25h-705.8v-81.776zm171.09 32.871c5.0882-7.1778 5.1414-7.182 10.172-0.80172 5.0116 6.3558 5.1132 6.3414 11.239-1.6035 3.4002-4.4095 6.2142-9.0996 6.2534-10.422s2.4582-2.4052 5.3756-2.4052c4.7835 0 5.1002-4.4868 3.2261-45.699-6.4043-140.83-9.6492-206.15-10.284-207.01-0.39246-0.53149-14.887 5.7009-32.21 13.85-30.631 14.409-58.722 22.568-62.506 18.155-1.0265-1.197-6.5075-20.106-12.18-42.02l-10.313-39.843 8.6042-6.8607c7.3683-5.8753 8.0813-7.8376 4.9643-13.662-2.0019-3.7406-3.6398-10.419-3.6398-14.84s-1.2022-8.7818-2.6714-9.6899-12.75-0.80613-25.067 0.22656l-22.396 1.8776 0.63144 62.269c0.34731 34.248 1.6043 63.242 2.7933 64.431s3.5044 0.039 5.1453-2.5556c2.2588-3.5717 2.9954-2.551 3.0326 4.2021 0.0271 4.9204 2.1988 9.7446 4.8435 10.759 3.6304 1.3931 4.3095 4.8723 2.797 14.33-1.6581 10.369-1.0785 12.491 3.4122 12.491 2.9752 0 4.5176 1.4431 3.4275 3.2069s-6.2261 3.2069-11.413 3.2069c-9.0686 0-13.248 6.8832-6.6546 10.958 1.5272 0.9439 2.1385 5.0555 1.3583 9.1369-1.0425 5.4537 0.69055 8.5494 6.5381 11.679 4.3762 2.3421 9.4377 3.343 11.248 2.2243 5.2538-3.2471 7.5687 3.7336 3.66 11.037-4.2116 7.8694 1.4564 17.282 8.7267 14.492 5.7195-2.1948 9.3366 7.1456 4.601 11.881-5.0256 5.0256-4.5536 11.971 0.81366 11.971 7.2761 0 8.4604 19.138 1.455 23.513-3.2458 2.027-5.9014 6.0562-5.9014 8.9539s-2.6791 5.969-5.9535 6.8252c-8.3709 2.189-13.747 18.702-8.4476 25.949 3.7679 5.1529 4.4575 5.1763 9.3175 0.31633 2.9054-2.9054 7.554-4.3637 10.413-3.2666 4.6849 1.7978 4.6481 2.5524-0.39657 8.1267-5.8123 6.4226-4.3586 12.963 2.8812 12.963 2.3256 0 5.956 2.0816 8.0674 4.6257 2.6214 3.1586 9.966 4.5389 23.157 4.3518 16.924-0.23997 20.173 0.73657 26.218 7.8822 6.0852 7.1931 11.971 10.924 18.535 11.749 1.1077 0.13925 4.3158-2.9938 7.129-6.9624zm105.13-60.13c41.695-166.48 46.831-191.79 46.327-228.33-0.26031-18.874-1.4159-35.259-2.5679-36.411s-15.534 4.4066-31.96 12.352-39.41 18.74-51.076 23.986-22.082 10.949-23.147 12.671-0.61156 28.239 1.0068 58.925 4.647 88.263 6.7304 127.95c4.5154 86.01 6.0257 90.711 28.603 89.027l11.224-0.83697 14.859-59.328zm25.655 57.768c5.7942-0.03001 8.9845-2.1068 10.164-6.6162 1.5906-6.0826 0.48319-6.5009-14.859-5.6121-14.71 0.85214-16.7 1.8237-17.661 8.6236-0.93882 6.6404-0.08277 7.3953 6.4138 5.6559 4.1235-1.104 11.298-2.0271 15.942-2.0512zm318.74-79.208c-1.4668-51.007-3.7334-84.557-5.9526-88.11-2.6838-4.2975-2.5973-6.7251 0.34452-9.667 4.159-4.159 5.1466-21.824 1.8979-33.948-1.1106-4.1447-5.3422-8.1038-9.8784-9.2423-6.9772-1.7512-7.768-3.3928-6.5486-13.594 0.76282-6.3814-0.18386-14.317-2.1037-17.634-2.6125-4.5138-2.4822-6.3963 0.51795-7.4828 2.2048-0.79842 4.0086-6.3005 4.0086-12.227 0-7.2493 2.1648-12.291 6.6157-15.409 5.2898-3.7051 6.4146-7.4279 5.6121-18.575l-1.0036-13.941-13.695 1.0047-13.695 1.0046-8.251-18.69c-4.5381-10.279-10.804-24.462-13.925-31.517s-9.5581-23.164-14.305-35.798l-8.6306-22.97-19.87 9.0185c-61.761 28.032-89.417 42.015-96.289 48.683-4.24 4.1143-10.417 9.0746-13.726 11.023-5.3767 3.1653-5.5123 4.151-1.2738 9.258 4.2727 5.1483 9.5224 5.5674 52.892 4.2231 26.482-0.82087 43.819-0.46763 38.528 0.78499s-15.754 2.4482-23.25 2.657c-13.366 0.3721-13.629 0.59613-13.629 11.604 0 10.972-0.29103 11.224-12.928 11.224-15.514 0-17.095 3.0068-12.662 24.082 1.8514 8.8022 3.7198 18.169 4.1521 20.814s2.8114 14.551 5.2868 26.457c4.3298 20.825 4.8606 21.647 13.976 21.647h9.4753l-2.2035-21.507c-1.2119-11.829-3.646-23.246-5.4089-25.37-2.1476-2.5877-2.0938-4.5494 0.16316-5.9443 7.3237-4.5263 7.275-4.8875 28.015 207.67 3.0608 31.368 6.3718 58.339 7.3578 59.934 3.0772 4.9789 19.3 7.0575 67.352 8.6294 25.55 0.83582 47.076 2.1415 47.836 2.9015 6.5712 6.5712 7.3628-5.7592 5.1994-80.99zm-174.44 71.97c1.1067-1.7248 1.5001-5.5016 0.87427-8.393s-3.3326-29.068-6.0151-58.171c-2.9646-32.163-10.539-80.534-19.314-123.34-7.9402-38.737-14.437-71.856-14.437-73.599 0-9.5178-6.4145 6.2465-12.282 30.184-32.129 131.08-32.999 137.78-27.322 210.7l2.0479 26.306 16.373 1.2426c22.684 1.7217 57.648-1.1462 60.075-4.9275zm-369.2-9.029c0-1.8679-1.4431-2.5043-3.2069-1.4142s-3.2069 2.6184-3.2069 3.3962 1.4431 1.4142 3.2069 1.4142 3.2069-1.5283 3.2069-3.3962zm243.81-23.061c1.9447-7.4962 4.5875-17.959 5.8728-23.25 2.8489-11.728-0.44861-133.44-3.4318-126.67-1.166 2.6457-6.6961 24.292-12.289 48.104s-14.184 59.528-19.092 79.371l-8.9226 36.078h34.326l3.5358-13.629zm164.65-51.588c-1.1274-8.2253-3.4512-14.955-5.1639-14.955s-2.3228 2.0622-1.3556 4.5826 2.7379 9.8033 3.9349 16.184c3.0886 16.464 5.0372 12.082 2.5846-5.8116zm-453.35-39.034c0-13.656-0.3561-14.236-6.4138-10.453-7.1582 4.4704-8.0389 7.4936-3.0765 10.561 1.8355 1.1344 2.4599 4.8274 1.3873 8.2066-1.3553 4.2701-0.41703 6.1439 3.0765 6.1439 3.8208 0 5.0264-3.4682 5.0264-14.458zm448.97-4.1703c0-18.042-6.3225-33.842-11.479-28.686-3.166 3.166 4.8241 47.315 8.5631 47.315 1.6036 0 2.9157-8.3828 2.9157-18.629zm-419.93-3.3459c-1.6001-2.9064-5.1338-8.1705-7.8527-11.698-4.6415-6.0221-4.9496-5.3811-5.0453 10.496l-0.10201 16.91 7.9547-5.2121c5.9852-3.9217 7.2344-6.5204 5.0454-10.496zm-30.775-19.937c-1.0148-1.6419-4.9219-2.9853-8.6825-2.9853-6.6727 0-6.6883 0.10907-0.64783 4.526 6.4222 4.6961 12.559 3.6828 9.3304-1.5407zm-2.7359-18.151c-1.0656-1.0656-1.8236 0.82847-1.6843 4.2091 0.1539 3.7359 0.91378 4.4958 1.9375 1.9375 0.92638-2.315 0.81244-5.0809-0.25319-6.1466zm448.5-14.885c-2.6566-26.501-3.2047-27.673-12.939-27.673-7.1739 0-8.1913 1.101-6.6678 7.2156 0.98875 3.9686 2.7853 13.71 3.9924 21.647 2.5587 16.825 6.3463 22.779 12.893 20.267 3.7228-1.4286 4.2845-5.8581 2.7209-21.456zm-447.23-16.449c0-4.9885-1.8172-8.0173-4.8104-8.0173-5.7733 0-6.3129 6.8354-0.96207 12.186 5.3082 5.3081 5.7724 4.9728 5.7724-4.169zm349.26-73.276c-3.593-4.3194-15.215 0.82998-17.398 7.7088-1.0928 3.4432-0.93385 18.161 0.35331 32.707l2.3403 26.446 8.4849-32.069c4.6668-17.638 7.4654-33.295 6.2193-34.793zm14.727-30.949c4.8375-2.0788 2.8672-2.7561-8.0173-2.7561-7.9371 0-17.317 1.2402-20.845 2.7561-4.8375 2.0788-2.8672 2.7561 8.0173 2.7561 7.9371 0 17.317-1.2402 20.845-2.7561zm68.949-12.828c0-1.7638-1.7317-3.2069-3.8483-3.2069-2.9931 0-2.9931-0.85519 0-3.8483 7.1226-7.1226 3.9396-8.9794-15.393-8.9794-18.204 0-25.434 4.2388-14.431 8.461 2.6457 1.0153 4.8104 3.8562 4.8104 6.3132 0 3.1566 4.234 4.4673 14.431 4.4673 7.9371 0 14.431-1.4431 14.431-3.2069zm-282.48-40.472c0.73493-0.66973-7.563-1.2177-18.44-1.2177-18.58 0-19.776 0.45263-19.776 7.4828 0 4.1156 0.89732 8.3801 1.994 9.4768 1.6203 1.6203 31.345-11.298 36.222-15.742z"/>
</svg>
